<svg enable-background="new 0 0 1600 900" viewBox="0 0 1600 900" xmlns="http://www.w3.org/2000/svg"><path d="m0 0h1600v900h-1600z" fill="#4ba685"/><g fill="#243240"><path d="m759.8 366.1c-23.3 0-42.2 19-42.2 42.2s19 42.2 42.2 42.2 42.2-19 42.2-42.2-18.9-42.2-42.2-42.2zm0 82.5c-22.2 0-40.2-18.1-40.2-40.2s18.1-40.2 40.2-40.2 40.2 18.1 40.2 40.2-18 40.2-40.2 40.2z"/><path d="m758.8 407.9-24.5 24 1.4 1.4 25.1-24.5v-31.5h-2z"/><path d="m369.6 708.7h12v12h-12z" transform="matrix(.7071 -.7071 .7071 .7071 -395.3261 474.9302)"/><path d="m638.2 714.7 10.6 10.6 10.6-10.6-10.6-10.6zm10.6 6.3-6.3-6.3 6.3-6.3 6.3 6.3z"/><path d="m638.2 737.4 10.6 10.6 10.6-10.6-10.6-10.6zm10.6 6.3-6.3-6.3 6.3-6.3 6.3 6.3z"/><path d="m638.2 760.1 10.6 10.6 10.6-10.6-10.6-10.6zm10.6 6.3-6.3-6.3 6.3-6.3 6.3 6.3z"/><path d="m638.2 782.7 10.6 10.6 10.6-10.6-10.6-10.6zm10.6 6.4-6.3-6.3 6.3-6.3 6.3 6.3z"/><path d="m638.2 805.4 10.6 10.6 10.6-10.6-10.6-10.6zm10.6 6.4-6.3-6.3 6.3-6.3 6.3 6.3z"/><path d="m551.7 713.2h-156.9v3h156.9v90.7h75.6v-3h-72.6v-19.7h72.6v-3h-72.6v-19.6h72.6v-3h-72.6v-19.7h72.6v-3h-72.6v-19.7h72.6v-3h-74.1z"/><path d="m410.1 232.7c23.3 0 42.2-19 42.2-42.2s-19-42.2-42.2-42.2-42.2 19-42.2 42.2 18.9 42.2 42.2 42.2zm0-82.5c22.2 0 40.2 18.1 40.2 40.2s-18.1 40.2-40.2 40.2-40.2-18.1-40.2-40.2 18-40.2 40.2-40.2z"/><path d="m421.7 183.5-1.4-1.4-14.6 14.5-5.7-5.7-1.4 1.4 7.1 7.2z"/><ellipse cx="379" cy="87.3" rx="10.1" ry="10.1" transform="matrix(.9871 -.1602 .1602 .9871 -9.0926 61.8367)"/><path d="m413 98.5c6.1 0 11.1-5 11.1-11.1s-5-11.1-11.1-11.1-11.1 5-11.1 11.1 4.9 11.1 11.1 11.1zm0-20.3c5 0 9.1 4.1 9.1 9.1s-4.1 9.1-9.1 9.1-9.1-4.1-9.1-9.1 4-9.1 9.1-9.1z"/><path d="m800.1 86.3h-360v2h360v9.2h2v-20.3h-2z"/><path d="m500.1 320.8h302v-158.3h-302zm153.1-79.1 146.8-76.5v153zm143.8 77.1h-291.8l145.9-76zm-145.9-78.3-145.9-76h291.8zm-2.2 1.2-146.8 76.5v-153z"/><path d="m799.3 580.4c-11.8 0-18-20.6-24-40.5-6.3-20.6-12.7-41.9-26-41.9-13.2 0-19.7 21.3-26 41.9-6 19.9-12.3 40.5-24 40.5s-18-20.6-24-40.5c-6.3-20.6-12.7-41.9-26-41.9-13.2 0-19.7 21.3-26 41.9-6 19.9-12.3 40.5-24 40.5-11.8 0-18-20.6-24-40.5-6.3-20.6-12.7-41.9-26-41.9s-19.7 21.3-26 41.9c-6 19.9-12.3 40.5-24 40.5v2c13.2 0 19.7-21.3 26-41.9 6-19.9 12.3-40.5 24-40.5s18 20.6 24 40.5c6.3 20.6 12.7 41.9 26 41.9 13.2 0 19.7-21.3 26-41.9 6-19.9 12.3-40.5 24-40.5 11.8 0 18 20.6 24 40.5 6.3 20.6 12.7 41.9 26 41.9s19.7-21.3 26-41.9c6-19.9 12.3-40.5 24-40.5s18 20.6 24 40.5c6.3 20.6 12.7 41.9 26 41.9z"/><path d="m598.1 654.9 9.1 9.1 9.1-9.1-9.1-9.1zm9.1 4.9-4.8-4.8 4.8-4.8 4.8 4.8z"/><path d="m783.8 648.5h12.8v12.8h-12.8z" transform="matrix(.7071 -.7071 .7071 .7071 -231.6546 750.6031)"/><path d="m626.8 653.4h139.5v3h-139.5z"/><path d="m368.9 369.6h12v12h-12z"/><path d="m393.4 369.6h12v12h-12z" transform="matrix(.7071 -.7071 .7071 .7071 -148.5974 392.3973)"/><path d="m423.9 369.2-7.4 12.8h14.8z"/><path d="m441.7 375.6c0 3.7 3 6.7 6.7 6.7s6.7-3 6.7-6.7-3-6.7-6.7-6.7-6.7 3-6.7 6.7z"/><path d="m608.3 443c-4.2 0-7.7 3.4-7.7 7.7s3.4 7.7 7.7 7.7 7.7-3.4 7.7-7.7-3.5-7.7-7.7-7.7zm0 13.3c-3.1 0-5.7-2.5-5.7-5.7s2.5-5.7 5.7-5.7 5.7 2.5 5.7 5.7-2.6 5.7-5.7 5.7z"/><path d="m469.3 376.6h138v58.2h2v-60.2h-140z"/><path d="m1215.8 382.6h11.3v-11.7h-11.3zm2-9.8h7.3v7.7h-7.3z"/><path d="m1198.6 370.8h-11.3v11.7h11.3zm-2 9.8h-7.3v-7.7h7.3z"/><path d="m1170.1 370.8h-11.3v11.7h11.3zm-2 9.8h-7.3v-7.7h7.3z"/><path d="m1130.4 382.6h11.3v-11.7h-11.3zm2-9.8h7.3v7.7h-7.3z"/><path d="m1137.1 397.7h-2v73.7h85.4v193.6h2v-194.6-1-71.7h-2v71.7h-26.5v-71.7h-2v71.7h-26.5v-71.7h-2v71.7h-26.4z"/><circle cx="1221.5" cy="683.4" r="7"/><path d="m443.2 442.9h-77v42.1h77zm-2 40.1h-73v-38.1h73z"/><path d="m443.2 499.5h-77v42.1h77zm-2 40.2h-73v-38.1h73z"/><path d="m443.2 556.2h-77v42.1h77zm-2 40.1h-73v-38.1h73z"/><circle cx="404.7" cy="463.9" r="7.5"/><path d="m793.2 730.3h-26.1v-8.8h7.1v-16.1h-16.1v16.1h7.1v8.8h-26.1v10.8h-7.1v16.1h16.1v-16.1h-7.1v-8.8h24.1v8.8h-7.1v16.1h16.1v-16.1h-7.1v-8.8h24.1v8.8h-7.1v16.1h16.1v-16.1h-7.1v-10.8zm-33.1-22.9h12.1v12.1h-12.1zm-13.9 47.8h-12.1v-12.1h12.1zm26 0h-12.1v-12.1h12.1zm26.1 0h-12.1v-12.1h12.1z"/><path d="m367.2 671.5h33v2h-33z"/><path d="m382.7 628.6v30.5l-12.1-12.1-1.5 1.4 14.6 14.6 14.5-14.6-1.4-1.4-12.1 12.1v-30.5z"/><path d="m914.2 183.4 50.6-31.6-17.7-11.1 17.7-11.1-17.7-11.1 17.7-11.1-50.6-31.4-50.6 31.6 17.7 11.1-17.7 11.1 17.7 11.1-17.7 11.1zm0-105 46.9 29.2-46.9 29.2-46.9-29.2zm-31 41.4 31 19.3 31-19.3 15.8 9.9-46.9 29.2-46.9-29.2zm31 41.5 31-19.3 15.8 9.9-46.8 29.1-46.9-29.2 15.8-9.9z"/><path d="m885.4 409-1.4-1.5-11.3 11.3v-43.2h-2v43.2l-11.2-11.3-1.4 1.5 13.6 13.6z"/><path d="m906.6 421.2v-43.2l11.3 11.3 1.4-1.5-13.7-13.6-13.7 13.6 1.4 1.5 11.3-11.3v43.2z"/><path d="m1027.6 371.8h16.1l-30.8 30.9 1.4 1.4 30.9-30.8v16.1h2v-19.6h-19.6z"/><path d="m1045.2 422.3h-50.5v-50.5h11.9v-2h-13.9v54.5h54.5v-14.5h-2z"/><path d="m1026.1 463.8h-147.7c-11.4 0-20.6 9.3-20.6 20.6v319c0 11.4 9.3 20.6 20.6 20.6h147.7c11.4 0 20.6-9.3 20.6-20.6v-319c0-11.4-9.2-20.6-20.6-20.6zm-166.3 29.4 90.8 152.6-90.5 153h-.4v-305.6zm92 154.6 89.9 151h-179.2zm92.1 151-91-153 91.6-155h.2v307.9h-.8zm-92.2-154.9-91.1-153h181.5zm74.4 178.1h-147.7c-10.3 0-18.6-8.4-18.6-18.6v-2.5h185v2.5c-.1 10.2-8.4 18.6-18.7 18.6zm18.6-333.1h-185v-4.5c0-10.3 8.4-18.6 18.6-18.6h147.7c10.3 0 18.6 8.4 18.6 18.6v4.5z"/><path d="m1000.9 321.9h94.1v-94.1h-94.1zm2-92.2h90.1v90.1h-90.1z"/><path d="m914.2 226.5-55.2 95.6h110.4zm0 4 51.8 89.6h-103.6z"/><path d="m1181.7 224.1c-28.7 0-52.1 23.4-52.1 52.1s23.4 52.1 52.1 52.1 52.1-23.4 52.1-52.1-23.3-52.1-52.1-52.1zm0 102.2c-27.6 0-50.1-22.5-50.1-50.1s22.5-50.1 50.1-50.1 50.1 22.5 50.1 50.1-22.4 50.1-50.1 50.1z"/><path d="m1190.1 85.4c-2.9 0-5.2 2.3-5.2 5.2s2.3 5.2 5.2 5.2 5.2-2.3 5.2-5.2c.1-2.9-2.3-5.2-5.2-5.2zm0 8.5c-1.8 0-3.2-1.5-3.2-3.2s1.5-3.2 3.2-3.2 3.2 1.5 3.2 3.2-1.4 3.2-3.2 3.2z"/><path d="m1190.1 110.4c-2.9 0-5.2 2.3-5.2 5.2s2.3 5.2 5.2 5.2 5.2-2.3 5.2-5.2c.1-2.9-2.3-5.2-5.2-5.2zm0 8.5c-1.8 0-3.2-1.5-3.2-3.2s1.5-3.2 3.2-3.2 3.2 1.5 3.2 3.2-1.4 3.2-3.2 3.2z"/><path d="m1190.1 135.4c-2.9 0-5.2 2.3-5.2 5.2s2.3 5.2 5.2 5.2 5.2-2.3 5.2-5.2c.1-2.9-2.3-5.2-5.2-5.2zm0 8.5c-1.8 0-3.2-1.5-3.2-3.2s1.5-3.2 3.2-3.2 3.2 1.5 3.2 3.2-1.4 3.2-3.2 3.2z"/><path d="m1086.2 177.7h59.4v2h-59.4z"/><path d="m1173.4 177.7h59.4v2h-59.4z"/><path d="m1151.7 178.7c0 4.3 3.5 7.8 7.8 7.8s7.8-3.5 7.8-7.8-3.5-7.8-7.8-7.8-7.8 3.5-7.8 7.8zm13.5 0c0 3.2-2.6 5.8-5.8 5.8s-5.8-2.6-5.8-5.8 2.6-5.8 5.8-5.8 5.8 2.6 5.8 5.8z"/><path d="m1158.5 164.5h2v-10.3h41.7v-25-2-23-2-25h-85.3v25 2 23 2 25h41.7v10.3zm-39.7-85.4h81.3v23h-81.3zm0 25h81.3v23h-81.3zm0 25h81.3v23h-81.3z"/><path d="m1130.2 784.7v-9c0-23.9 19.4-43.3 43.3-43.3 7.8 0 15.4 2.1 22.1 6.1l1-1.7c-7-4.1-15-6.3-23.1-6.3-25 0-45.3 20.3-45.3 45.3v8.7l-14.4-14.4-1.4 1.4 16.9 16.9 16.6-16.6-1.4-1.4z"/><path d="m1200 778.5 1.4 1.4 14.4-14.4v9c0 23.9-19.4 43.3-43.3 43.3-7.8 0-15.4-2.1-22.1-6.1l-1 1.7c7 4.1 15 6.3 23.1 6.3 25 0 45.3-20.3 45.3-45.3v-8.7l14.4 14.4 1.4-1.4-16.9-16.9z"/><path d="m371.7 293.8-1.4 1.4 9.6 9.6-9.6 9.6 1.4 1.4 11-11z"/><path d="m389.7 320.6h29.3v2h-29.3z"/><path d="m294.2 382.6h11.3v-11.7h-11.3zm2-9.8h7.3v7.7h-7.3z"/><path d="m277 370.8h-11.3v11.7h11.3zm-2 9.8h-7.3v-7.7h7.3z"/><path d="m248.5 370.8h-11.3v11.7h11.3zm-2 9.8h-7.3v-7.7h7.3z"/><path d="m208.8 382.6h11.3v-11.7h-11.3zm2-9.8h7.3v7.7h-7.3z"/><path d="m215.4 397.7h-2v73.7h85.4v193.6h2v-194.6-1-71.7h-2v71.7h-26.4v-71.7h-2v71.7h-26.5v-71.7h-2v71.7h-26.5z"/><ellipse cx="299.8" cy="683.4" rx="7" ry="7" transform="matrix(.3827 -.9239 .9239 .3827 -446.3225 698.9205)"/><path d="m106 371.8h16.1l-30.8 30.9 1.4 1.4 30.8-30.8v16.1h2v-19.6h-19.5z"/><path d="m123.5 422.3h-50.5v-50.5h12v-2h-14v54.5h54.5v-14.5h-2z"/><path d="m79.3 321.9h94.1v-94.1h-94.1zm2-92.2h90.1v90.1h-90.1z"/><path d="m260.1 224.1c-28.7 0-52.1 23.4-52.1 52.1s23.4 52.1 52.1 52.1 52.1-23.4 52.1-52.1-23.4-52.1-52.1-52.1zm0 102.2c-27.6 0-50.1-22.5-50.1-50.1s22.5-50.1 50.1-50.1 50.1 22.5 50.1 50.1-22.5 50.1-50.1 50.1z"/><path d="m268.5 85.4c-2.9 0-5.2 2.3-5.2 5.2s2.3 5.2 5.2 5.2 5.2-2.3 5.2-5.2c.1-2.9-2.3-5.2-5.2-5.2zm0 8.5c-1.8 0-3.2-1.5-3.2-3.2s1.5-3.2 3.2-3.2 3.2 1.5 3.2 3.2-1.4 3.2-3.2 3.2z"/><path d="m268.5 110.4c-2.9 0-5.2 2.3-5.2 5.2s2.3 5.2 5.2 5.2 5.2-2.3 5.2-5.2c.1-2.9-2.3-5.2-5.2-5.2zm0 8.5c-1.8 0-3.2-1.5-3.2-3.2s1.5-3.2 3.2-3.2 3.2 1.5 3.2 3.2-1.4 3.2-3.2 3.2z"/><path d="m268.5 135.4c-2.9 0-5.2 2.3-5.2 5.2s2.3 5.2 5.2 5.2 5.2-2.3 5.2-5.2c.1-2.9-2.3-5.2-5.2-5.2zm0 8.5c-1.8 0-3.2-1.5-3.2-3.2s1.5-3.2 3.2-3.2 3.2 1.5 3.2 3.2-1.4 3.2-3.2 3.2z"/><path d="m164.5 177.7h59.4v2h-59.4z"/><path d="m251.8 177.7h59.4v2h-59.4z"/><path d="m230.1 178.7c0 4.3 3.5 7.8 7.8 7.8s7.8-3.5 7.8-7.8-3.5-7.8-7.8-7.8-7.8 3.5-7.8 7.8zm13.5 0c0 3.2-2.6 5.8-5.8 5.8s-5.8-2.6-5.8-5.8 2.6-5.8 5.8-5.8 5.8 2.6 5.8 5.8z"/><path d="m236.9 164.5h2v-10.3h41.7v-25-2-23-2-25h-85.3v25 2 23 2 25h41.7v10.3zm-39.7-85.4h81.3v23h-81.3zm0 25h81.3v23h-81.3zm0 25h81.3v23h-81.3z"/><path d="m208.6 784.7v-9c0-23.9 19.4-43.3 43.3-43.3 7.8 0 15.4 2.1 22.1 6.1l1-1.7c-7-4.1-15-6.3-23.1-6.3-25 0-45.3 20.3-45.3 45.3v8.7l-14.4-14.5-1.4 1.4 16.9 16.9 16.6-16.6-1.4-1.4z"/><path d="m278.3 778.5 1.4 1.4 14.4-14.4v9c0 23.9-19.4 43.3-43.3 43.3-7.8 0-15.4-2.1-22.1-6.1l-1 1.7c7 4.1 15 6.3 23.1 6.3 25 0 45.3-20.3 45.3-45.3v-8.7l14.4 14.4 1.4-1.4-16.9-16.9z"/><path d="m1291.3 708.7h12v12h-12z" transform="matrix(.7071 -.7071 .7071 .7071 -125.3945 1126.5996)"/><path d="m1559.8 714.7 10.6 10.6 10.6-10.6-10.6-10.6zm10.6 6.3-6.3-6.3 6.3-6.3 6.3 6.3z"/><path d="m1559.8 737.4 10.6 10.6 10.6-10.6-10.6-10.6zm10.6 6.3-6.3-6.3 6.3-6.3 6.3 6.3z"/><path d="m1559.8 760.1 10.6 10.6 10.6-10.6-10.6-10.6zm10.6 6.3-6.3-6.3 6.3-6.3 6.3 6.3z"/><path d="m1559.8 782.7 10.6 10.6 10.6-10.6-10.6-10.6zm10.6 6.4-6.3-6.3 6.3-6.3 6.3 6.3z"/><path d="m1559.8 805.4 10.6 10.6 10.6-10.6-10.6-10.6zm10.6 6.4-6.3-6.3 6.3-6.3 6.3 6.3z"/><path d="m1473.3 713.2h-156.9v3h156.9v90.7h75.6v-3h-72.6v-19.7h72.6v-3h-72.6v-19.6h72.6v-3h-72.6v-19.7h72.6v-3h-72.6v-19.7h72.6v-3h-74.1z"/><path d="m1331.7 232.7c23.3 0 42.2-19 42.2-42.2s-19-42.2-42.2-42.2-42.2 19-42.2 42.2 18.9 42.2 42.2 42.2zm0-82.5c22.2 0 40.2 18.1 40.2 40.2s-18.1 40.2-40.2 40.2-40.2-18.1-40.2-40.2 18-40.2 40.2-40.2z"/><path d="m1343.3 183.5-1.4-1.4-14.6 14.5-5.7-5.7-1.4 1.4 7.1 7.2z"/><circle cx="1300.6" cy="87.3" r="10.1"/><path d="m1334.6 98.5c6.1 0 11.1-5 11.1-11.1s-5-11.1-11.1-11.1-11.1 5-11.1 11.1 4.9 11.1 11.1 11.1zm0-20.3c5 0 9.1 4.1 9.1 9.1s-4.1 9.1-9.1 9.1-9.1-4.1-9.1-9.1 4-9.1 9.1-9.1z"/><path d="m1528.8 645.9-9.1 9.1 9.1 9.1 9.1-9.1zm-4.9 9 4.8-4.8 4.8 4.8-4.8 4.8z"/><path d="m1290.5 369.6h12v12h-12z"/><path d="m1315 369.6h12v12h-12z" transform="matrix(.7071 -.7071 .7071 .7071 121.3372 1044.0789)"/><path d="m1345.5 369.2-7.4 12.8h14.8z"/><path d="m1363.3 375.6c0 3.7 3 6.7 6.7 6.7s6.7-3 6.7-6.7-3-6.7-6.7-6.7-6.7 3-6.7 6.7z"/><path d="m1522.2 450.7c0 4.2 3.4 7.7 7.7 7.7s7.7-3.4 7.7-7.7-3.4-7.7-7.7-7.7-7.7 3.4-7.7 7.7zm13.3 0c0 3.1-2.5 5.7-5.7 5.7s-5.7-2.5-5.7-5.7 2.5-5.7 5.7-5.7 5.7 2.6 5.7 5.7z"/><path d="m1390.9 376.6h138v58.2h2v-60.2h-140z"/><path d="m1364.8 442.9h-77v42.1h77zm-2 40.1h-73v-38.1h73z"/><path d="m1364.8 499.5h-77v42.1h77zm-2 40.2h-73v-38.1h73z"/><path d="m1364.8 556.2h-77v42.1h77zm-2 40.1h-73v-38.1h73z"/><circle cx="1326.3" cy="463.9" r="7.5"/><path d="m1288.8 671.5h33v2h-33z"/><path d="m1304.3 628.6v30.5l-12.1-12.1-1.4 1.4 14.5 14.6 14.5-14.6-1.4-1.4-12.1 12.1v-30.5z"/><path d="m1293.3 293.8-1.4 1.4 9.6 9.6-9.6 9.6 1.4 1.4 11-11z"/><path d="m1311.4 320.6h29.3v2h-29.3z"/><path d="m25.5 118.6 17.7-11-43.2-27v2.4l39.4 24.6-39.4 24.6v2.3l23.6-14.7 15.8 9.9-39.4 24.6v2.3l23.6-14.7 15.8 9.9-39.4 24.6v2.3l43.2-26.9-17.7-11.1 17.7-11z"/><path d="m0 239.3v4l44.3 76.8h-44.3v2h47.8z"/><path d="m104.5 463.8h-104.5v2h104.5c10.3 0 18.6 8.4 18.6 18.6v4.5h-123.1v2h120.6l-90.5 153-30.1-50.6v3.9l29 48.7-29 49v3.9l30.1-51 89.8 151h-119.9v2h123.1v2.5c0 10.3-8.4 18.6-18.6 18.6h-104.5v2h104.5c11.4 0 20.6-9.3 20.6-20.6v-319c0-11.3-9.2-20.5-20.6-20.5zm18.6 335h-.8v-.1l-91-152.9 91.6-155h.2z"/><path d="m1548.5 653.4h51.5v3h-51.5z"/><path d="m1600 550c-1.1-3.3-2.1-6.7-3.1-10.1-6.3-20.6-12.7-41.9-26-41.9-13.2 0-19.7 21.3-26 41.9-6 19.9-12.3 40.5-24 40.5-11.8 0-18-20.6-24-40.5-6.3-20.6-12.7-41.9-26-41.9s-19.7 21.3-26 41.9c-6 19.9-12.3 40.4-24 40.4v2c13.2 0 19.7-21.3 26-41.9 6-19.9 12.3-40.5 24-40.5s18 20.6 24 40.5c6.3 20.6 12.7 41.9 26 41.9 13.2 0 19.7-21.3 26-41.9 6-19.9 12.3-40.4 24-40.4s18 20.6 24 40.5c1.6 5.3 3.3 10.7 5 15.8v-6.3z"/><path d="m1600 318.8h-173.2l145.9-76 27.3 14.2v-2.3l-25.1-13.1 25.1-13.1v-2.3l-27.3 14.2-145.9-76h173.2v-2h-178.3v158.3h178.3zm-176.3-153.6 146.8 76.5-146.8 76.5z"/><path d="m1361.7 86.3h238.3v2h-238.3z"/></g></svg>